<svg width="122" height="33" viewBox="0 0 122 33" fill="none" xmlns="http://www.w3.org/2000/svg">
<g id="Group">
<path id="Vector" d="M90.3953 21.8923C92.3683 21.2968 92.0167 20.5579 91.8446 19.2952C90.7397 19.9983 89.7568 20.3211 88.5874 20.6153C88.4583 18.8934 88.4439 18.5993 87.8198 17.6236C87.0952 16.777 86.0692 17.7599 84.9931 18.2047L89.2259 12.0204C89.9864 12.0778 90.4958 9.53096 89.8788 9.17942C88.7668 8.54808 85.7679 10.2627 86.2342 11.138C85.8827 11.9989 85.4522 12.7163 84.9787 13.3118C84.412 14.0077 84.0246 14.718 83.7519 15.4211L83.4147 15.6506C82.2669 17.8388 81.2696 19.2306 80.5163 19.3885L77.6466 20.5292C75.6737 21.5838 74.3536 21.8421 73.9805 20.9309C73.9088 20.3929 75.6235 19.575 77.2377 18.7643C78.2636 18.341 78.1345 17.516 77.4529 16.5116C75.2934 16.8201 73.2272 17.8603 71.2113 19.3885L70.4723 20.4359C68.3057 23.5352 66.5193 25.4436 65.1705 25.9816C65.5005 23.6572 67.1434 20.7085 69.0661 17.6307C69.7047 16.2102 71.1897 14.0651 72.7681 11.8411C73.916 10.7219 74.0092 9.72467 72.9977 8.87092C71.1108 8.51938 70.0921 10.234 69.1594 12.1424L68.4779 12.8096C67.6098 14.2875 66.4045 15.7583 65.0198 17.2362C63.75 18.8862 62.308 20.0557 60.7368 20.8305C59.3808 19.7041 57.4438 20.1274 55.2413 21.2968C56.2815 19.6826 57.6518 19.0513 59.2876 19.2952C60.2705 19.41 60.7942 19.0441 60.7296 18.054C57.946 15.5645 55.1767 16.282 52.4218 18.793C50.2121 19.5104 49.1718 18.7715 48.7557 17.2649C51.116 14.2732 51.7617 11.9702 50.334 10.4923C47.4572 10.7936 46.5675 13.0894 46.0582 15.7511C46.3308 16.325 46.4456 16.7914 46.2734 17.0568C42.0406 24.0159 38.0158 27.9617 34.1488 29.454C32.9866 29.5401 33.5749 24.8481 34.2062 20.0557C35.0313 16.5618 34.608 14.1656 32.6279 14.4454C29.4855 14.883 15.6822 30.8673 15.2732 29.6764C14.6634 28.4137 22.3471 17.3509 23.5309 13.6275C27.6704 6.35992 27.9646 1.99077 23.5309 1.18007C15.7826 0.527211 1.92186 9.95424 0.616132 13.5486C-0.804379 17.681 1.08246 18.8862 3.80152 19.3526C5.64532 19.862 6.34123 18.2477 2.7182 17.1142C1.16855 15.5502 2.41688 14.1369 3.88044 12.5155C6.50623 10.4564 9.47639 8.57678 12.6259 6.79755C18.2936 4.04979 23.0932 2.55754 23.6815 4.28655C23.703 7.5652 20.9696 10.7506 18.9178 14.2803C15.8759 19.3239 13.4007 23.8222 12.3246 26.986C11.2915 30.4943 11.8009 31.8861 13.0205 32.3094C16.2848 33.5362 20.9553 28.2272 25.9055 22.6025C27.4982 20.73 29.1125 19.0082 30.7697 17.5375C30.1671 20.2709 29.7438 23.1908 29.464 26.2543C29.1053 31.1113 31.3078 33.1775 33.9982 32.295C35.3685 31.7282 37.3773 30.7884 38.9771 29.0666C39.9313 28.3778 41.0433 27.1582 42.1984 25.7879C44.1354 23.8509 45.8358 21.5049 47.4213 18.9652L47.7298 19.08C48.7055 20.0557 49.9036 20.7157 51.2882 21.1103C51.5465 23.1765 52.8379 23.8078 54.9328 23.32C57.4294 22.1075 58.893 21.9353 59.5172 22.5954C60.9735 23.1119 62.7599 21.6412 64.575 19.9624L63.7285 21.4977C61.5188 25.9529 62.2434 27.4021 63.75 28.055C65.4073 28.5572 68.1622 25.7951 71.1682 22.294C72.0363 22.4734 72.5026 22.8608 72.8255 23.3271C72.1726 23.5208 71.6417 23.8006 71.2543 24.1737L69.1164 25.7808C68.9083 26.6775 69.3459 27.4021 70.0849 28.0407C71.8713 28.6074 73.8873 27.7824 76.0396 26.1323C76.922 25.2714 77.2162 24.1809 77.0727 22.9254C77.2305 22.4017 78.8806 21.7631 80.3944 21.139C79.598 22.208 79.2537 23.3487 79.2393 24.5396C79.9998 26.1108 81.0401 25.7449 82.2095 24.4248C83.3143 22.3658 84.6272 20.7659 86.1051 19.5176C85.7464 22.1003 88.2933 22.8823 90.4097 21.921L90.3953 21.8923Z" fill="#61BB46"/>
<path id="Vector_2" d="M101.02 14.1584C102.118 12.0061 103.022 9.95426 103.639 8.06742L104.364 5.02551C105.325 1.30922 101.932 -0.470003 97.5625 0.304821L90.7182 3.49021C87.2243 5.29096 83.7519 7.16345 80.6455 10.5425C78.486 12.702 76.7713 14.6749 77.374 15.6363C77.9479 16.8846 79.0312 17.6666 80.7387 17.8675C81.8005 18.011 82.726 16.7698 81.614 16.3035C81.492 16.1529 80.9826 16.0524 80.0069 16.0094C79.4545 15.6937 79.0599 15.4211 79.1317 15.2417C79.0671 15.1484 79.4402 14.4669 80.172 13.3047C80.3226 13.1109 80.5665 12.8814 80.8535 12.6446L81.5853 11.7909C82.891 10.5497 84.247 9.36596 85.7105 8.30417C86.4782 7.72305 87.4539 7.04149 88.6735 6.25232C92.0096 4.35113 95.3026 2.62212 98.201 2.16297C100.224 1.8473 101.494 2.39254 101.422 4.45157C101.322 6.1447 100.769 8.26112 98.4808 12.0348L96.9957 14.883L91.9952 22.703L89.9434 25.7951L89.0968 27.2658C88.0565 28.8514 87.2602 30.3508 87.5041 31.5059C88.1928 32.7542 90.9119 32.6753 91.8374 30.4441C91.9378 29.906 92.1889 29.1168 92.6409 27.9904C95.4819 23.7361 98.0503 19.5965 100.095 15.6507C100.468 15.3422 100.762 14.7969 101.035 14.1656L101.02 14.1584Z" fill="#61BB46"/>
<path id="Vector_3" d="M121.955 19.5104C121.431 18.8002 120.563 19.2593 120.004 19.7974C119.717 20.0915 119.444 20.3283 119.243 20.3355C118.928 20.6655 118.44 20.9955 117.945 21.3255L117.263 21.7058C116.696 22.1004 116.582 21.9497 116.725 21.469C117.356 20.5651 117.737 19.7687 117.93 19.0656C118.031 18.2621 117.521 17.7886 116.79 17.4442C115.491 17.2433 114.135 18.2836 112.765 19.6898C113.489 18.4917 114.279 17.2147 114.451 16.5905C114.867 15.4569 114.25 14.8041 112.88 14.4956C112.37 14.4454 112.062 15.0193 111.768 15.6291C111.595 16.117 111.344 16.5187 111.043 16.8703C110.907 17.272 110.684 17.5805 110.404 17.8388L110.082 18.4415C109.687 18.9652 109.465 19.3741 109.314 19.7257C108.977 20.5507 108.41 21.1892 107.499 21.5479C106.803 22.1004 106.609 21.9927 106.674 21.5479C108.216 19.6611 108.561 18.2262 106.918 17.5447C105.418 16.8631 104.127 18.2478 102.871 19.6109C104.974 16.5403 105.088 14.8328 103.094 14.5673C102.513 14.2086 101.752 15.3063 100.884 17.1429C99.6789 19.1015 98.8251 20.6009 98.366 21.5838C97.3472 24.0302 97.8853 25.092 99.4278 25.257C101.236 24.8553 102.577 22.6671 104.371 21.1031L104.084 22.1721C104.012 22.7102 104.148 23.0402 104.349 23.3128C104.658 23.5567 105.232 23.7791 105.433 23.7289C105.519 23.7074 106.882 23.6428 106.882 23.5854C107.111 23.5854 107.449 23.3846 107.771 23.198C107.865 23.4491 107.901 23.8437 107.936 24.2311C108.051 24.6616 108.611 24.9844 109.386 25.2499C110.326 25.2642 111.179 24.31 112.026 23.2195C112.22 23.1048 112.356 22.9828 112.456 22.8393L113.475 21.8349C113.898 21.2753 114.171 21.0601 114.329 21.096C113.769 22.1362 113.855 22.8608 114.616 23.4563C115.591 23.9226 116.567 23.8222 117.55 23.32C117.859 23.198 118.11 23.0617 118.282 22.911C118.418 22.7676 118.569 22.6599 118.734 22.5739C119.2 22.4088 119.552 22.2008 119.788 21.9353L120.692 21.1605C121.747 20.6081 122.177 20.0629 121.934 19.5176L121.955 19.5104Z" fill="#61BB46"/>
</g>
</svg>
