<svg width="132" height="120" viewBox="0 0 132 120" fill="none" xmlns="http://www.w3.org/2000/svg">
<g id="logo (1) 1" clip-path="url(#clip0_2930_3421)">
<g id="Group 2">
<path id="Vector" d="M115.868 81.276C115.831 81.1277 115.794 80.9795 115.739 80.8312C115.442 79.9418 114.942 79.1264 114.312 78.4037C110.865 74.401 103.397 72.6776 103.397 72.6776C96.0032 71.8251 95.3361 66.0805 95.3361 66.0805C98.8755 63.2453 100.339 59.2426 100.339 59.2426C105.621 57.0559 104.212 49.4397 104.212 49.4397C103.416 48.5872 101.859 40.3039 101.859 40.3039C94.5022 25.757 81.1784 31.9093 78.899 33.0952C78.8249 33.1323 78.7508 33.1693 78.7137 33.2064C78.6211 33.2619 78.5654 33.2991 78.5654 33.2991C76.9718 35.7451 76.175 38.8399 75.8785 42.1384C75.9711 42.1754 76.0638 42.2125 76.1379 42.2496C76.6939 42.509 77.1199 42.8611 77.1756 43.2874V47.5866C77.5462 46.0114 78.2134 44.881 79.5105 44.8255C79.5105 44.8255 79.5105 44.8255 79.5291 44.8439C79.6032 44.8439 79.6958 44.8255 79.7884 44.8255C79.7884 44.8255 82.8462 47.3456 80.7892 52.9791C80.7892 52.9791 79.807 57.1671 77.398 56.9818C77.3238 56.9818 77.2497 56.9818 77.1571 56.9818C77.1571 56.9818 77.083 56.9818 77.0459 56.9818C77.0459 57.0559 77.0644 57.1115 77.083 57.1856C77.4166 58.8719 77.7686 60.4285 78.0836 61.7442C78.1577 62.0408 78.2319 62.3373 78.2875 62.6338C78.6396 64.1162 78.9361 65.2466 79.0657 65.8952C79.0657 65.9507 79.0657 66.0064 79.0843 66.0435C79.0843 66.1546 79.1214 66.2474 79.1214 66.3215C79.2326 68.1746 77.991 69.657 77.6574 70.0091C77.6019 70.0647 77.5833 70.1018 77.5833 70.1018L78.6952 70.3611L79.7884 70.6021C80.678 69.657 81.1598 68.4711 81.3636 67.1183C85.9779 69.5274 90.0918 69.0269 93.8907 66.8403C94.2984 69.972 95.9846 71.788 98.3011 72.9741C98.5049 76.2541 96.8556 78.8485 94.5208 81.2019L94.4651 81.2575L94.3169 81.869L94.1872 82.4435H115.887C115.887 81.7392 115.887 81.276 115.887 81.276M81.1598 64.6165C81.0486 64.5424 80.9374 64.4869 80.8262 64.4127C79.7329 63.968 78.9361 63.3935 78.5654 62.6152C78.4358 62.3373 78.3616 62.0592 78.3616 61.7258C78.3616 61.6887 78.3616 61.6515 78.3616 61.6146C80.5668 62.0037 82.2716 61.4477 83.6059 60.0951C83.6059 60.0951 83.6244 60.0765 83.643 60.0579C83.5318 60.0579 83.4391 60.0765 83.3465 60.0951C82.2716 60.1691 81.4934 59.817 81.0857 58.9647C80.6224 57.9824 80.6595 56.2962 81.3451 53.7203C82.5312 50.4403 82.6424 46.8082 82.1604 42.9538C82.1049 42.6016 82.0678 42.2496 82.0123 41.8975C82.0123 41.8789 82.0123 41.8419 82.0123 41.8234C81.864 40.8042 81.6601 39.785 81.4377 38.7472C81.4934 38.7472 81.5489 38.7658 81.586 38.7842C86.1262 39.785 90.3142 39.9888 93.9092 38.7472C96.3739 38.2283 97.9675 39.9146 98.5235 44.2695C99.1534 48.0312 98.9867 51.5336 97.1892 54.5171C98.3196 54.7581 99.2646 53.3867 99.7835 48.5501C100.729 46.5674 101.655 46.5488 102.563 49.6435C103.101 53.0717 102.322 55.9811 99.0424 57.9083C94.8358 65.7099 89.4062 69.62 81.1969 64.5981" fill="#249D64"/>
<path id="Vector_2" d="M50.3252 48.0856C50.4178 46.8068 50.529 45.1392 50.6217 43.564L50.3252 48.0856ZM54.4206 70.1745V70.1004V69.9707L52.586 66.5425L53.1418 66.0236L53.253 65.9124L55.4953 63.8L53.5126 59.0374L50.4548 50.9764L50.1954 50.3092L50.5846 51.6435L52.1598 57.1102V59.964L53.5681 61.1684L53.3828 61.7244L53.3457 61.8356C54.3834 62.2433 47.7122 66.7833 46.3225 66.246V64.2817H43.2649V66.0422C38.1687 65.2452 34.8518 62.4841 33.1654 57.9256C33.1654 57.9256 26.5498 54.1822 30.8305 47.715C30.8305 47.715 33.221 49.2345 33.499 55.1459C33.499 55.1459 36.4268 58.5185 34.6294 53.2742C32.8318 48.0484 32.7391 35.6883 41.2079 38.7459C41.2079 38.7459 45.8222 46.1953 49.7137 42.5448L49.9175 42.73L50.1769 42.9524L50.6772 43.4156C50.7329 42.3964 50.7884 41.4144 50.807 40.6176C50.807 40.6176 50.7143 40.6176 50.5476 40.6545C50.4734 40.6545 50.3807 40.6731 50.2695 40.6916C49.1206 40.8214 46.5263 40.9512 46.1556 39.3388V39.2462L50.6586 39.098H50.807C50.807 38.9126 50.807 38.783 50.7698 38.7088C50.7698 38.6718 50.7698 38.6532 50.7514 38.6532C50.6772 38.542 50.8441 38.0972 51.1775 37.4857C51.3999 37.078 51.6594 36.5963 51.9745 36.096C52.9937 34.4096 54.2908 32.4452 54.5318 32.0747C54.5502 32.0376 54.5687 32.0192 54.5687 32.0192C54.5132 31.982 54.4761 31.9265 54.4206 31.8894C50.5105 28.4241 43.8764 29.1097 43.8393 29.4433C43.8022 29.7769 37.7982 31.5558 37.7982 31.5558C30.849 32.538 29.1441 38.5976 29.2183 46.3622C26.698 52.7369 27.9025 56.8692 32.0906 59.2227C32.8874 61.4835 34.5553 63.911 36.7049 66.4313C36.9087 70.3414 30.0892 73.0099 21.5649 75.3819C19.6748 76.3454 18.2849 77.4758 17.3954 78.736C16.7468 79.6625 16.3577 80.6632 16.1909 81.738C16.1539 81.9603 16.1353 82.2012 16.1168 82.4422H40.2257C40.3183 79.9219 41.1153 75.808 45.2476 75.3262C45.2476 75.3262 45.2476 75.3448 45.2662 75.3633C45.3588 75.3633 45.4329 75.3262 45.5257 75.3262C47.1564 78.4209 48.9538 80.9041 51.0294 82.1272L54.0498 81.9788C50.5846 79.8849 47.601 77.5684 46.5449 74.3627C49.1577 73.2507 51.8447 72.3984 54.6059 72.0276L54.4391 70.1745H54.4206ZM50.8625 71.1937C50.4734 71.342 50.0287 71.5273 49.5282 71.7126C46.3594 72.9913 41.4487 75.1595 39.4844 76.9755C39.0398 77.3832 38.7617 77.7723 38.669 78.1244C38.669 78.1244 38.6506 78.0873 38.6135 78.0132C38.2244 77.3091 36.0562 73.3249 36.2972 71.6571C36.2972 71.6571 38.2799 69.211 38.2799 67.8768C40.3369 69.7113 42.4495 71.027 44.6732 71.0827C47.5455 70.1745 49.5839 68.9515 50.9922 67.4876C51.2702 68.655 51.6778 69.7484 52.4191 70.6193C52.4191 70.6193 51.8262 70.8417 50.8625 71.2123M44.877 76.2156C42.431 77.4203 41.3561 79.6068 41.2449 82.4792H49.4356C49.4356 82.4792 49.621 82.4608 49.7137 82.4422C47.5455 80.6632 46.026 78.5507 44.8956 76.2156M50.7884 39.2092V39.6169V40.6545C50.7884 40.2468 50.7884 39.8948 50.7884 39.5984C50.7884 39.4686 50.7884 39.3388 50.7884 39.2276" fill="#249D64"/>
<path id="Vector_3" d="M49.9737 82.404C49.9737 82.404 49.807 82.4226 49.7143 82.4411H41.2457C41.3567 79.5688 42.4316 77.3821 44.8777 76.1776C44.9518 76.1405 45.026 76.1034 45.1001 76.0664C46.2305 78.4384 47.7686 80.6066 49.9737 82.404Z" fill="#249D64"/>
<path id="Vector_4" d="M49.9737 82.404C49.9737 82.404 49.807 82.4226 49.7143 82.4411H41.2457C41.3567 79.5688 42.4316 77.3821 44.8777 76.1776C44.9518 76.1405 45.026 76.1034 45.1001 76.0664C46.2305 78.4384 47.7686 80.6066 49.9737 82.404Z" fill="#249D64"/>
<path id="Vector_5" d="M94.5953 81.8701C94.5953 81.6477 94.5582 81.4069 94.5212 81.1845C94.1136 77.9972 92.6496 75.3844 89.0545 73.9389C86.0155 72.6973 82.5316 71.5113 78.6771 70.3439C78.3992 70.2697 78.1212 70.177 77.8433 70.1029C77.7691 70.066 77.7136 70.0474 77.6579 70.0103C76.231 69.3433 75.1748 68.5649 75.5268 67.3418C76.6017 67.2492 77.8062 66.8044 79.0848 66.0447C79.159 65.989 79.2516 65.9335 79.3257 65.8964C79.9187 65.5444 80.5118 65.1181 81.1417 64.6178C81.1603 64.6178 81.1974 64.5807 81.216 64.5621C81.0862 64.5066 80.9564 64.4695 80.8083 64.414C79.7148 63.9692 78.918 63.3948 78.5475 62.6164C78.4177 62.357 78.3436 62.0605 78.3436 61.7269C78.3436 61.6898 78.3436 61.6529 78.3436 61.6157C80.5488 62.0049 82.2537 61.449 83.5878 60.0962C83.5878 60.0962 83.6064 60.0777 83.6249 60.0591C83.7176 59.9665 83.7918 59.8738 83.8844 59.7812C82.7724 59.7997 81.883 59.5773 81.3456 58.9473C80.734 58.2245 80.6044 56.9829 81.1417 54.9631C82.5686 50.2191 82.8281 46.3276 82.4204 42.9364C82.3833 42.5658 82.3278 42.2322 82.2721 41.8802C82.2721 41.8617 82.2721 41.8245 82.2721 41.806C82.1054 40.7498 81.8644 39.7305 81.568 38.7669C81.1788 37.4327 80.6971 36.154 80.1596 34.9124C80.1596 34.9124 79.8075 34.1898 79.0107 33.1521C78.9921 33.1149 78.9552 33.0778 78.918 33.0409C77.1206 30.7615 73.2105 27.1665 66.2798 26.7773C60.4611 27.1109 56.7734 29.6866 54.6609 31.8548C54.6052 31.9105 54.5497 31.9845 54.494 32.0402C53.0302 33.5967 52.4001 34.894 52.4001 34.894C52.2332 35.2831 52.0665 35.6722 51.9182 36.0613C51.7329 36.5247 51.5662 36.9879 51.3995 37.4513C51.2697 37.8589 51.1214 38.2666 51.0102 38.6743C50.9732 38.8041 50.9361 38.9337 50.899 39.0634C50.862 39.2117 50.8249 39.3413 50.788 39.4897C50.788 39.4897 50.788 39.5082 50.788 39.5266C50.6952 39.8788 50.6025 40.2309 50.5284 40.6015C50.5284 40.6015 50.5284 40.6201 50.5284 40.6386C50.3801 41.2871 50.2691 41.9729 50.1763 42.6585C50.1763 42.7325 50.1763 42.8066 50.1579 42.8809C49.8614 45.2713 49.9169 47.9028 50.4544 50.9047C50.4913 51.1271 50.5284 51.3309 50.584 51.5533C50.8064 52.6282 51.0844 53.7586 51.4364 54.926C52.4556 58.7063 51.0844 59.7812 48.6939 59.7255C49.8798 61.0969 51.4179 61.7825 53.3636 61.6529C53.4563 61.6529 53.5491 61.6529 53.6417 61.6343C53.827 61.6343 54.0123 61.5786 54.2161 61.5601C54.2161 62.95 53.1043 63.8765 51.3438 64.5066C51.9924 65.0255 52.6409 65.4701 53.2524 65.8409C53.3081 65.8778 53.3636 65.9149 53.4193 65.9335C54.7164 66.7117 55.9209 67.1751 57.0329 67.2677C57.4035 68.5463 56.2545 69.3433 54.735 70.0289C54.6424 70.0474 54.5683 70.0844 54.494 70.1029C53.3636 70.4365 52.2704 70.7885 51.214 71.1221C50.6768 71.289 50.1393 71.4743 49.6019 71.641C47.4152 72.3637 45.3768 73.105 43.5236 73.8647C41.7076 74.606 40.4291 75.6252 39.558 76.8853C39.3356 77.2189 39.1318 77.5709 38.9651 77.9231C38.335 79.2388 38.0385 80.7397 37.9644 82.3705H40.5587C40.6513 79.9058 41.4297 75.9033 45.3212 75.2917C45.4139 75.2917 45.488 75.2546 45.5806 75.2546C47.2299 78.3493 49.0089 80.8324 51.0844 82.0554C51.0844 82.0554 51.0844 82.0554 51.1028 82.0554L54.3828 81.8887C50.9176 79.7948 47.934 77.4783 46.8963 74.2724C49.5092 73.1605 52.1963 72.3082 54.9574 71.9189C54.9944 71.9189 55.0315 71.9189 55.0686 71.9189C57.8483 70.6959 59.7755 68.7132 60.3313 65.4517C62.0548 66.3967 63.8894 67.2121 66.354 67.2492C68.8187 67.2121 70.6532 66.3967 72.3766 65.4517C72.9324 68.6946 74.8598 70.6959 77.6395 71.9189C80.4561 72.2897 83.1617 73.1605 85.8116 74.2724C84.7739 77.4783 81.7718 79.7948 78.3251 81.8887L81.6051 82.0554C83.699 80.8324 85.478 78.3308 87.1273 75.2361C91.2412 75.7178 92.038 79.8503 92.1492 82.3521H94.7436C94.7436 82.1482 94.7251 81.9628 94.7065 81.7775M66.3724 65.1181C58.8675 65.674 55.4577 56.8532 55.4577 56.8532C52.8633 57.3165 51.8256 52.869 51.8256 52.869C49.7872 47.2356 52.8264 44.7154 52.8264 44.7154C54.5312 44.7895 55.1241 46.6612 55.4392 49.0332V43.1588C55.643 41.5836 60.5352 41.2501 60.5352 41.2501C60.146 38.3036 63.5372 36.0244 63.5372 36.0244C63.704 37.7292 62.4995 40.2865 62.4995 40.2865H70.2084C70.2084 40.2865 69.004 37.7292 69.1707 36.0244C69.1707 36.0244 72.5619 38.3036 72.1728 41.2501C72.1728 41.2501 74.4705 41.4169 75.9716 42.0284C76.0643 42.0655 76.1569 42.1025 76.231 42.1396C76.787 42.3989 77.2132 42.7511 77.2688 43.1773V49.0517C77.5652 46.8093 78.1212 44.9933 79.6222 44.7524C79.6963 44.7524 79.7891 44.734 79.8817 44.734C79.8817 44.734 82.9393 47.2541 80.8824 52.8876C80.8824 52.8876 79.9001 57.0756 77.4912 56.8903C77.454 56.8903 77.4356 56.8903 77.3985 56.8903C77.3428 56.8903 77.3059 56.8903 77.2502 56.8903C77.2502 56.8903 77.2502 56.8903 77.2502 56.9274C77.2502 56.9274 77.2132 57.0201 77.1761 57.1313C76.5832 58.5025 73.1548 65.674 66.3724 65.1737" fill="#249D64"/>
<path id="Vector_6" d="M49.9737 82.404C49.9737 82.404 49.807 82.4226 49.7143 82.4411H41.2457C41.3567 79.5688 42.4316 77.3821 44.8777 76.1776C44.9518 76.1405 45.026 76.1034 45.1001 76.0664C46.2305 78.4384 47.7686 80.6066 49.9737 82.404Z" fill="#249D64"/>
<path id="Vector_7" d="M91.3137 82.4411H82.8451C82.8451 82.4411 82.6782 82.4226 82.5855 82.404C84.7908 80.6066 86.3289 78.4384 87.4593 76.0664C90.0721 77.2523 91.2025 79.4762 91.3137 82.4411Z" fill="#249D64"/>
<path id="Vector_8" d="M65.9828 -0.00195312C30.014 -0.00195312 0.75351 29.2587 0.75351 65.2275C0.75351 71.1944 1.55035 76.9576 3.05136 82.4428H9.8708C8.20299 76.9947 7.29498 71.2129 7.29498 65.2275C7.29498 32.8721 33.6276 6.53952 65.9828 6.53952C98.338 6.53952 124.671 32.8721 124.671 65.2275C124.671 71.2129 123.763 76.9947 122.095 82.4428H128.914C130.415 76.9576 131.212 71.176 131.212 65.2275C131.212 29.2587 101.952 -0.00195312 65.9828 -0.00195312Z" fill="#249D64"/>
<path id="Vector_9" d="M18.5625 97.0989C18.5625 97.0989 18.5625 97.2101 18.4884 97.2101H15.5606C15.5606 97.2101 15.4679 97.173 15.4864 97.0989L16.9689 92.0399C16.9689 92.0399 16.9875 91.9844 17.0244 91.9844C17.043 91.9844 17.0615 92.0029 17.0801 92.0399L18.5625 97.0989Z" fill="#249D64"/>
<path id="Vector_10" d="M71.4871 97.1L70.0047 92.0409C70.0047 92.0409 69.9675 91.9668 69.949 91.9854C69.912 91.9854 69.8935 92.004 69.8935 92.0409L68.4109 97.1C68.4109 97.1 68.4295 97.2112 68.5037 97.2112H71.413C71.413 97.2112 71.5242 97.174 71.4871 97.1ZM71.4871 97.1L70.0047 92.0409C70.0047 92.0409 69.9675 91.9668 69.949 91.9854C69.912 91.9854 69.8935 92.004 69.8935 92.0409L68.4109 97.1C68.4109 97.1 68.4295 97.2112 68.5037 97.2112H71.413C71.413 97.2112 71.5242 97.174 71.4871 97.1ZM71.4871 97.1L70.0047 92.0409C70.0047 92.0409 69.9675 91.9668 69.949 91.9854C69.912 91.9854 69.8935 92.004 69.8935 92.0409L68.4109 97.1C68.4109 97.1 68.4295 97.2112 68.5037 97.2112H71.413C71.413 97.2112 71.5242 97.174 71.4871 97.1ZM99.0799 92.0409C99.0799 92.0409 99.0799 91.9668 99.0243 91.9854C99.0058 91.9854 98.9872 92.004 98.9687 92.0409L97.5048 97.1C97.5048 97.1 97.5048 97.2112 97.5789 97.2112H100.507C100.507 97.2112 100.599 97.174 100.581 97.1L99.0799 92.0409ZM99.0799 92.0409C99.0799 92.0409 99.0799 91.9668 99.0243 91.9854C99.0058 91.9854 98.9872 92.004 98.9687 92.0409L97.5048 97.1C97.5048 97.1 97.5048 97.2112 97.5789 97.2112H100.507C100.507 97.2112 100.599 97.174 100.581 97.1L99.0799 92.0409ZM71.4871 97.1L70.0047 92.0409C70.0047 92.0409 69.9675 91.9668 69.949 91.9854C69.912 91.9854 69.8935 92.004 69.8935 92.0409L68.4109 97.1C68.4109 97.1 68.4295 97.2112 68.5037 97.2112H71.413C71.413 97.2112 71.5242 97.174 71.4871 97.1ZM131.602 83.5352H0.401947L6.03539 94.8763L0.401947 106.217H131.602L125.969 94.8763L131.602 83.5352ZM23.1581 101.733H20.156C20.0079 101.733 19.9152 101.677 19.8781 101.547L19.3778 99.787C19.3778 99.787 19.3221 99.7128 19.2666 99.7128H14.8006C14.8006 99.7128 14.7265 99.7499 14.7079 99.787L14.1891 101.547C14.152 101.677 14.0594 101.733 13.9296 101.733H10.9276C10.8349 101.733 10.7794 101.714 10.7423 101.677C10.7052 101.622 10.7052 101.547 10.7238 101.455L14.9118 88.2051C14.9674 88.0753 15.0415 88.0196 15.1712 88.0196H18.8775C19.0071 88.0196 19.0999 88.0753 19.1368 88.2051L23.3619 101.455C23.3619 101.455 23.3805 101.529 23.3805 101.566C23.3805 101.677 23.3064 101.733 23.1581 101.733ZM34.6474 101.51C34.6474 101.51 34.6288 101.622 34.5733 101.677C34.5362 101.714 34.4807 101.733 34.4064 101.733H25.0483C25.0483 101.733 24.9186 101.714 24.8815 101.677C24.8259 101.622 24.8074 101.566 24.8074 101.51V88.242C24.8074 88.242 24.8259 88.1308 24.8815 88.0753C24.9186 88.0382 24.9741 88.0196 25.0483 88.0196H27.8279C27.8279 88.0196 27.9391 88.0196 27.9947 88.0753C28.0317 88.1308 28.0688 88.1865 28.0688 88.242V98.8604C28.0688 98.8604 28.0688 98.9531 28.1615 98.9531H34.4064C34.4064 98.9531 34.5362 98.9716 34.5733 99.0272C34.6288 99.0643 34.6474 99.1198 34.6474 99.1939V101.51ZM50.2506 92.4857C50.2506 92.4857 50.232 92.5969 50.1949 92.6524C50.1394 92.6896 50.0837 92.7081 50.0282 92.7081H47.2299C47.2299 92.7081 47.1187 92.6896 47.0632 92.6524C47.0261 92.5969 47.0075 92.5412 47.0075 92.4857C47.0075 91.9668 46.8223 91.5406 46.4703 91.17C46.0995 90.8179 45.6178 90.6326 45.0063 90.6326C44.3947 90.6326 43.9128 90.8364 43.5608 91.2256C43.1903 91.6147 43.0048 92.1336 43.0048 92.7636V96.9702C43.0048 97.6003 43.2087 98.1192 43.6163 98.5083C44.024 98.8974 44.5245 99.0827 45.136 99.0827C45.7104 99.0827 46.1736 98.9345 46.5258 98.638C46.8779 98.323 47.0632 97.8968 47.0632 97.3408V96.8035C47.0632 96.8035 47.0261 96.6923 46.9706 96.6923H45.0063C45.0063 96.6923 44.8765 96.6737 44.8394 96.6366C44.7839 96.5811 44.7653 96.5254 44.7653 96.4699V94.3017C44.7653 94.3017 44.7839 94.1905 44.8394 94.135C44.8765 94.0979 44.9322 94.0608 45.0063 94.0608H50.0282C50.0282 94.0608 50.1394 94.0979 50.1949 94.135C50.232 94.1905 50.2506 94.2462 50.2506 94.3017V96.9702C50.2506 97.9524 50.0467 98.8233 49.6019 99.5646C49.1571 100.306 48.5456 100.88 47.7488 101.288C46.9706 101.696 46.044 101.899 45.0063 101.899C43.9685 101.899 43.0419 101.696 42.2451 101.269C41.4483 100.843 40.8368 100.269 40.4106 99.5089C39.9658 98.7492 39.7434 97.8596 39.7434 96.8776V92.8563C39.7434 91.8556 39.9658 90.9846 40.4106 90.2435C40.8368 89.4836 41.4483 88.9092 42.2451 88.483C43.0419 88.0568 43.9499 87.8529 45.0063 87.8529C46.0626 87.8529 46.952 88.0568 47.7488 88.4459C48.5456 88.8536 49.1571 89.391 49.6019 90.0952C50.0467 90.7808 50.2506 91.5406 50.2506 92.3931V92.4857ZM62.3328 101.51C62.3328 101.51 62.3143 101.622 62.2771 101.677C62.2216 101.714 62.1659 101.733 62.1104 101.733H59.3122C59.3122 101.733 59.201 101.714 59.1455 101.677C59.1083 101.622 59.0898 101.566 59.0898 101.51V96.2846C59.0898 96.2846 59.0528 96.192 58.9787 96.192H55.3095C55.3095 96.192 55.2168 96.2289 55.2168 96.2846V101.51C55.2168 101.51 55.1983 101.622 55.1427 101.677C55.1056 101.714 55.0501 101.733 54.976 101.733H52.1963C52.1963 101.733 52.0851 101.714 52.0295 101.677C51.9925 101.622 51.9554 101.566 51.9554 101.51V88.242C51.9554 88.242 51.9925 88.1308 52.0295 88.0753C52.0851 88.0382 52.1407 88.0196 52.1963 88.0196H54.976C54.976 88.0196 55.1056 88.0196 55.1427 88.0753C55.1983 88.1308 55.2168 88.1865 55.2168 88.242V93.3011C55.2168 93.3011 55.2539 93.4123 55.3095 93.4123H58.9787C58.9787 93.4123 59.0898 93.3752 59.0898 93.3011V88.242C59.0898 88.242 59.1083 88.1308 59.1455 88.0753C59.201 88.0382 59.2567 88.0196 59.3122 88.0196H62.1104C62.1104 88.0196 62.2216 88.0196 62.2771 88.0753C62.3143 88.1308 62.3328 88.1865 62.3328 88.242V101.51ZM76.0829 101.733H73.0808C72.9325 101.733 72.8399 101.677 72.8029 101.547L72.3026 99.787C72.3026 99.787 72.2469 99.7128 72.2098 99.7128H67.7253C67.7253 99.7128 67.6512 99.7499 67.6327 99.787L67.1138 101.547C67.0767 101.677 66.984 101.733 66.8544 101.733H63.8523C63.7597 101.733 63.704 101.714 63.6671 101.677C63.6299 101.622 63.6299 101.547 63.6485 101.455L67.8551 88.2051C67.8922 88.0753 67.9663 88.0196 68.096 88.0196H71.8021C71.9319 88.0196 72.0245 88.0753 72.0616 88.2051L76.2867 101.455C76.2867 101.455 76.3051 101.529 76.3051 101.566C76.3051 101.677 76.2311 101.733 76.0829 101.733ZM90.2591 101.733H87.461C87.3127 101.733 87.2386 101.659 87.2015 101.529L85.4967 93.9497C85.4967 93.9497 85.4595 93.8755 85.441 93.8755C85.404 93.8755 85.3855 93.894 85.3855 93.9497L83.8474 101.529C83.8288 101.659 83.7362 101.733 83.5879 101.733H80.9751C80.8267 101.733 80.7341 101.677 80.6971 101.547L77.0464 88.2606V88.1865C77.0279 88.0753 77.1021 88.0196 77.2503 88.0196H80.2152C80.345 88.0196 80.4376 88.0753 80.4747 88.2051L82.1795 95.3395C82.1795 95.3395 82.2167 95.4321 82.2352 95.4321C82.2722 95.4321 82.2907 95.395 82.3093 95.3395L83.8288 88.2235C83.8474 88.0753 83.94 88.0196 84.0883 88.0196H86.8123C86.9421 88.0196 87.0347 88.0753 87.0717 88.2051L88.7767 95.3395C88.7767 95.3395 88.7952 95.4321 88.8322 95.4321C88.8507 95.4321 88.8693 95.395 88.8879 95.3395L90.4815 88.2235C90.5 88.0753 90.5927 88.0196 90.741 88.0196H93.6317C93.8171 88.0196 93.8912 88.0939 93.8541 88.2606L90.5371 101.547C90.5 101.677 90.4074 101.733 90.2591 101.733ZM105.158 101.733H102.175C102.026 101.733 101.934 101.677 101.897 101.547L101.378 99.787C101.378 99.787 101.322 99.7128 101.285 99.7128H96.8191C96.8191 99.7128 96.745 99.7499 96.7079 99.787L96.2075 101.547C96.1706 101.677 96.0779 101.733 95.9296 101.733H92.9275C92.9275 101.733 92.7979 101.714 92.7608 101.677C92.7051 101.622 92.7051 101.547 92.7237 101.455L96.9303 88.2051C96.9674 88.0753 97.06 88.0196 97.1898 88.0196H100.896C101.026 88.0196 101.1 88.0753 101.137 88.2051L105.362 101.455C105.362 101.455 105.381 101.529 105.381 101.566C105.381 101.677 105.306 101.733 105.158 101.733ZM116.666 101.51C116.666 101.51 116.629 101.622 116.592 101.677C116.536 101.714 116.48 101.733 116.425 101.733H107.048C107.048 101.733 106.919 101.714 106.881 101.677C106.844 101.622 106.807 101.566 106.807 101.51V88.242C106.807 88.242 106.844 88.1308 106.881 88.0753C106.919 88.0382 106.974 88.0196 107.048 88.0196H109.828C109.828 88.0196 109.958 88.0196 109.995 88.0753C110.05 88.1308 110.069 88.1865 110.069 88.242V98.8604C110.069 98.8604 110.106 98.9531 110.161 98.9531H116.425C116.425 98.9531 116.536 98.9716 116.592 99.0272C116.629 99.0643 116.666 99.1198 116.666 99.1939V101.51ZM121.299 101.51C121.299 101.51 121.28 101.622 121.243 101.677C121.188 101.714 121.132 101.733 121.076 101.733H118.278C118.278 101.733 118.167 101.714 118.111 101.677C118.074 101.622 118.056 101.566 118.056 101.51V88.242C118.056 88.242 118.056 88.1308 118.111 88.0753C118.167 88.0382 118.222 88.0196 118.278 88.0196H121.076C121.076 88.0196 121.188 88.0196 121.243 88.0753C121.28 88.1308 121.299 88.1865 121.299 88.242V101.51ZM99.0243 91.9854C99.0243 91.9854 98.9872 92.004 98.9687 92.0409L97.5048 97.1C97.5048 97.1 97.5048 97.2112 97.5789 97.2112H100.507C100.507 97.2112 100.599 97.174 100.581 97.1L99.0799 92.0409C99.0799 92.0409 99.0799 91.9668 99.0243 91.9854ZM70.0047 92.0409C70.0047 92.0409 69.9675 91.9668 69.949 91.9854C69.912 91.9854 69.8935 92.004 69.8935 92.0409L68.4109 97.1C68.4109 97.1 68.4295 97.2112 68.5037 97.2112H71.413C71.413 97.2112 71.5242 97.174 71.4871 97.1L70.0047 92.0409ZM71.4871 97.1L70.0047 92.0409C70.0047 92.0409 69.9675 91.9668 69.949 91.9854C69.912 91.9854 69.8935 92.004 69.8935 92.0409L68.4109 97.1C68.4109 97.1 68.4295 97.2112 68.5037 97.2112H71.413C71.413 97.2112 71.5242 97.174 71.4871 97.1ZM99.0799 92.0409C99.0799 92.0409 99.0799 91.9668 99.0243 91.9854C99.0058 91.9854 98.9872 92.004 98.9687 92.0409L97.5048 97.1C97.5048 97.1 97.5048 97.2112 97.5789 97.2112H100.507C100.507 97.2112 100.599 97.174 100.581 97.1L99.0799 92.0409ZM99.0799 92.0409C99.0799 92.0409 99.0799 91.9668 99.0243 91.9854C99.0058 91.9854 98.9872 92.004 98.9687 92.0409L97.5048 97.1C97.5048 97.1 97.5048 97.2112 97.5789 97.2112H100.507C100.507 97.2112 100.599 97.174 100.581 97.1L99.0799 92.0409ZM71.4871 97.1L70.0047 92.0409C70.0047 92.0409 69.9675 91.9668 69.949 91.9854C69.912 91.9854 69.8935 92.004 69.8935 92.0409L68.4109 97.1C68.4109 97.1 68.4295 97.2112 68.5037 97.2112H71.413C71.413 97.2112 71.5242 97.174 71.4871 97.1ZM71.4871 97.1L70.0047 92.0409C70.0047 92.0409 69.9675 91.9668 69.949 91.9854C69.912 91.9854 69.8935 92.004 69.8935 92.0409L68.4109 97.1C68.4109 97.1 68.4295 97.2112 68.5037 97.2112H71.413C71.413 97.2112 71.5242 97.174 71.4871 97.1ZM71.4871 97.1L70.0047 92.0409C70.0047 92.0409 69.9675 91.9668 69.949 91.9854C69.912 91.9854 69.8935 92.004 69.8935 92.0409L68.4109 97.1C68.4109 97.1 68.4295 97.2112 68.5037 97.2112H71.413C71.413 97.2112 71.5242 97.174 71.4871 97.1Z" fill="#249D64"/>
<path id="Vector_11" d="M65.7794 9.42969C36.4633 9.42969 12.5953 33.2791 12.5953 62.6138C12.5953 69.3591 13.8554 75.8079 16.1533 81.7564C16.2459 81.9974 16.3386 82.2198 16.4313 82.4607H18.7476C18.2287 81.2561 17.7655 80.0145 17.3578 78.7545C15.6529 73.6769 14.7449 68.2473 14.7449 62.6138C14.7449 34.4652 37.6308 11.5793 65.7794 11.5793C93.9282 11.5793 116.814 34.4652 116.814 62.6138C116.814 68.1175 115.943 73.4175 114.312 78.4023C113.868 79.7737 113.349 81.1265 112.793 82.4607H115.109C115.332 81.9233 115.535 81.3858 115.739 80.8484C117.815 75.1594 118.945 69.0257 118.945 62.6324C118.945 33.3163 95.0956 9.44822 65.7794 9.44822" fill="#249D64"/>
<g id="Group">
<path id="Vector_12" d="M1.06699 118.231V108.557C1.06699 108.391 1.15964 108.316 1.30789 108.316H2.8645C2.99422 108.316 3.08687 108.354 3.161 108.483L5.27354 111.893C5.27354 111.893 5.3662 111.949 5.38473 111.893L7.5158 108.483C7.58993 108.372 7.68258 108.316 7.8123 108.316H9.3689C9.53569 108.316 9.60982 108.409 9.60982 108.557V118.231C9.60982 118.397 9.51716 118.471 9.3689 118.471H7.8123C7.64551 118.471 7.57138 118.379 7.57138 118.231V111.93C7.57138 111.93 7.5158 111.819 7.4602 111.893L5.99625 114.283C5.92212 114.395 5.82946 114.45 5.69975 114.45H4.9585C4.82879 114.45 4.73614 114.413 4.66201 114.283L3.21658 111.893C3.21658 111.893 3.12393 111.837 3.12393 111.93V118.231C3.12393 118.397 3.03127 118.471 2.88303 118.471H1.30789C1.14111 118.471 1.06699 118.379 1.06699 118.231Z" fill="#249D64"/>
<path id="Vector_13" d="M17.6537 118.265L17.2461 116.912C17.2461 116.912 17.2089 116.838 17.1533 116.838H13.5954C13.5954 116.838 13.5212 116.838 13.5027 116.912L13.095 118.265C13.058 118.394 12.9653 118.469 12.8171 118.469H11.1307C10.964 118.469 10.8713 118.357 10.9269 118.191L14.0216 108.499C14.0587 108.369 14.1513 108.295 14.2995 108.295H16.4307C16.5789 108.295 16.6715 108.369 16.7086 108.499L19.8033 118.191C19.8589 118.357 19.7662 118.469 19.5995 118.469H17.9131C17.7648 118.469 17.6721 118.394 17.6352 118.265H17.6537ZM14.0957 115.263H16.6715C16.6715 115.263 16.7641 115.226 16.7456 115.17L15.43 110.741C15.43 110.741 15.3373 110.667 15.3188 110.741L14.0216 115.17C14.0216 115.17 14.0216 115.263 14.0957 115.263Z" fill="#249D64"/>
<path id="Vector_14" d="M21.1178 118.231V108.557C21.1178 108.391 21.2104 108.316 21.3586 108.316H22.8597C22.9894 108.316 23.0821 108.354 23.1562 108.483L26.7882 114.524C26.7882 114.524 26.8994 114.58 26.8994 114.487V108.557C26.8994 108.391 26.992 108.316 27.1403 108.316H28.6598C28.8267 108.316 28.9008 108.409 28.9008 108.557V118.231C28.9008 118.397 28.8082 118.471 28.6598 118.471H27.1774C27.0477 118.471 26.955 118.416 26.881 118.305L23.2302 112.208C23.2302 112.208 23.119 112.152 23.119 112.245V118.249C23.119 118.416 23.045 118.49 22.8966 118.49H21.3586C21.1918 118.49 21.1178 118.397 21.1178 118.249V118.231Z" fill="#249D64"/>
<path id="Vector_15" d="M38.0203 111.445C38.0203 113.298 36.7047 114.521 34.7218 114.521H32.6648C32.6648 114.521 32.5722 114.558 32.5722 114.614V118.228C32.5722 118.394 32.4795 118.469 32.3312 118.469H30.7746C30.6079 118.469 30.5338 118.376 30.5338 118.228V108.536C30.5338 108.369 30.6264 108.295 30.7746 108.295H34.7959C36.7231 108.295 38.0018 109.555 38.0018 111.445H38.0203ZM35.9819 111.482C35.9819 110.63 35.3888 110.055 34.4994 110.055H32.6648C32.6648 110.055 32.5722 110.093 32.5722 110.148V112.798C32.5722 112.798 32.6093 112.891 32.6648 112.891H34.4994C35.3888 112.891 35.9819 112.316 35.9819 111.501V111.482Z" fill="#249D64"/>
<path id="Vector_16" d="M39.0728 114.947V111.834C39.0728 109.648 40.5924 108.184 42.8903 108.184C45.188 108.184 46.7261 109.648 46.7261 111.834V114.947C46.7261 117.153 45.2066 118.635 42.8903 118.635C40.5738 118.635 39.0728 117.153 39.0728 114.947ZM44.6877 115.022V111.816C44.6877 110.685 43.9836 109.944 42.9087 109.944C41.834 109.944 41.1298 110.685 41.1298 111.816V115.022C41.1298 116.134 41.834 116.875 42.9087 116.875C43.9836 116.875 44.6877 116.134 44.6877 115.022Z" fill="#249D64"/>
<path id="Vector_17" d="M49.8405 118.268L47.2832 108.594C47.2463 108.428 47.3204 108.316 47.5056 108.316H49.1549C49.3032 108.316 49.3959 108.391 49.4144 108.539L50.7856 114.339C50.7856 114.339 50.8968 114.413 50.8968 114.339L52.2125 108.539C52.2496 108.391 52.3237 108.316 52.472 108.316H54.1213C54.2695 108.316 54.3621 108.391 54.3992 108.539L55.8261 114.339C55.8261 114.339 55.9188 114.413 55.9188 114.339L57.2344 108.539C57.2716 108.391 57.3456 108.316 57.494 108.316H59.069C59.2359 108.316 59.31 108.428 59.2728 108.594L56.938 118.268C56.901 118.416 56.8082 118.49 56.66 118.49H55.0663C54.9181 118.49 54.8255 118.416 54.7884 118.268L53.3429 112.097C53.3429 112.097 53.2503 112.004 53.2317 112.097L51.8791 118.268C51.842 118.416 51.7679 118.49 51.6196 118.49H50.1372C49.9888 118.49 49.8962 118.397 49.8591 118.268H49.8405Z" fill="#249D64"/>
<path id="Vector_18" d="M67.1666 110.055H62.4783C62.4783 110.055 62.3857 110.093 62.3857 110.148V112.372C62.3857 112.372 62.4228 112.465 62.4783 112.465H65.5173C65.6842 112.465 65.7583 112.557 65.7583 112.705V113.965C65.7583 114.132 65.6657 114.206 65.5173 114.206H62.4783C62.4783 114.206 62.3857 114.243 62.3857 114.299V116.615C62.3857 116.615 62.4228 116.708 62.4783 116.708H67.1666C67.3335 116.708 67.4076 116.801 67.4076 116.949V118.209C67.4076 118.376 67.3149 118.45 67.1666 118.45H60.6066C60.4399 118.45 60.3658 118.357 60.3658 118.209V108.536C60.3658 108.369 60.4585 108.295 60.6066 108.295H67.1666C67.3335 108.295 67.4076 108.388 67.4076 108.536V109.796C67.4076 109.963 67.3149 110.037 67.1666 110.037V110.055Z" fill="#249D64"/>
<path id="Vector_19" d="M74.1901 118.283L72.411 114.336C72.411 114.336 72.3555 114.262 72.3184 114.262H71.0027C71.0027 114.262 70.9101 114.299 70.9101 114.355V118.228C70.9101 118.394 70.8174 118.469 70.6691 118.469H69.1126C68.9458 118.469 68.8717 118.376 68.8717 118.228V108.536C68.8717 108.369 68.9643 108.295 69.1126 108.295H73.1894C75.0611 108.295 76.3026 109.537 76.3026 111.353C76.3026 112.668 75.5984 113.669 74.4496 114.058C74.3939 114.058 74.3754 114.132 74.4125 114.169L76.3397 118.172C76.4323 118.339 76.3397 118.469 76.173 118.469H74.5237C74.3939 118.469 74.2827 118.394 74.2272 118.283H74.1901ZM70.8915 110.148V112.594C70.8915 112.594 70.9286 112.687 70.9842 112.687H72.8744C73.6898 112.687 74.2642 112.168 74.2642 111.39C74.2642 110.611 73.6898 110.074 72.8744 110.074H70.9842C70.9842 110.074 70.8915 110.111 70.8915 110.167V110.148Z" fill="#249D64"/>
<path id="Vector_20" d="M80.3228 115.558V115.317C80.3228 115.15 80.4155 115.076 80.5638 115.076H82.0833C82.25 115.076 82.3241 115.15 82.3241 115.261V115.465C82.3241 116.207 83.0654 116.855 84.2515 116.855C85.3633 116.855 85.771 116.299 85.771 115.725C85.771 114.984 85.0297 114.724 83.6398 114.205C82.1203 113.686 80.3784 113.001 80.3784 111.073C80.3784 109.294 81.8424 108.201 83.9179 108.201C86.1601 108.201 87.7353 109.443 87.7353 111.333V111.481C87.7353 111.648 87.6425 111.722 87.4944 111.722H85.9748C85.808 111.722 85.7339 111.666 85.7339 111.574V111.426C85.7339 110.666 85.0852 109.962 83.8622 109.962C82.9356 109.962 82.4168 110.369 82.4168 111.055C82.4168 111.815 83.0654 112.074 84.6776 112.63C85.9934 113.112 87.828 113.668 87.828 115.651C87.828 117.43 86.3825 118.597 84.1032 118.597C81.8238 118.597 80.3228 117.411 80.3228 115.558Z" fill="#249D64"/>
<path id="Vector_21" d="M89.1822 115.096V108.536C89.1822 108.369 89.2749 108.295 89.4232 108.295H90.9798C91.1465 108.295 91.2206 108.388 91.2206 108.536V115.114C91.2206 116.134 91.9064 116.838 92.9441 116.838C93.9817 116.838 94.6675 116.134 94.6675 115.114V108.536C94.6675 108.369 94.7601 108.295 94.9083 108.295H96.4649C96.6318 108.295 96.7059 108.388 96.7059 108.536V115.096C96.7059 117.19 95.1864 118.58 92.9441 118.58C90.7017 118.58 89.1822 117.19 89.1822 115.096Z" fill="#249D64"/>
<path id="Vector_22" d="M105.805 111.445C105.805 113.298 104.49 114.521 102.507 114.521H100.45C100.45 114.521 100.357 114.558 100.357 114.614V118.228C100.357 118.394 100.265 118.469 100.116 118.469H98.5597C98.393 118.469 98.3189 118.376 98.3189 118.228V108.536C98.3189 108.369 98.4116 108.295 98.5597 108.295H102.581C104.508 108.295 105.787 109.555 105.787 111.445H105.805ZM103.767 111.482C103.767 110.63 103.174 110.055 102.285 110.055H100.45C100.45 110.055 100.357 110.093 100.357 110.148V112.798C100.357 112.798 100.394 112.891 100.45 112.891H102.285C103.174 112.891 103.767 112.316 103.767 111.501V111.482Z" fill="#249D64"/>
<path id="Vector_23" d="M114.479 111.445C114.479 113.298 113.164 114.521 111.181 114.521H109.124C109.124 114.521 109.031 114.558 109.031 114.614V118.228C109.031 118.394 108.939 118.469 108.79 118.469H107.234C107.067 118.469 106.993 118.376 106.993 118.228V108.536C106.993 108.369 107.085 108.295 107.234 108.295H111.255C113.182 108.295 114.461 109.555 114.461 111.445H114.479ZM112.441 111.482C112.441 110.63 111.848 110.055 110.958 110.055H109.124C109.124 110.055 109.031 110.093 109.031 110.148V112.798C109.031 112.798 109.068 112.891 109.124 112.891H110.958C111.848 112.891 112.441 112.316 112.441 111.501V111.482Z" fill="#249D64"/>
<path id="Vector_24" d="M115.735 118.231V108.557C115.735 108.391 115.828 108.316 115.976 108.316H117.533C117.699 108.316 117.774 108.409 117.774 108.557V116.637C117.774 116.637 117.81 116.73 117.866 116.73H122.536C122.703 116.73 122.777 116.822 122.777 116.97V118.231C122.777 118.397 122.684 118.471 122.536 118.471H115.976C115.809 118.471 115.735 118.379 115.735 118.231Z" fill="#249D64"/>
<path id="Vector_25" d="M125.873 118.209V114.614C125.873 114.614 125.873 114.521 125.836 114.503L122.908 108.591C122.816 108.425 122.908 108.295 123.075 108.295H124.762C124.891 108.295 125.002 108.369 125.058 108.48L126.837 112.261C126.837 112.261 126.93 112.316 126.948 112.261L128.727 108.48C128.783 108.369 128.894 108.295 129.024 108.295H130.729C130.914 108.295 131.006 108.425 130.914 108.591L127.949 114.503C127.949 114.503 127.912 114.596 127.912 114.614V118.209C127.912 118.376 127.819 118.45 127.671 118.45H126.133C125.966 118.45 125.892 118.357 125.892 118.209H125.873Z" fill="#249D64"/>
</g>
</g>
</g>
<defs>
<clipPath id="clip0_2930_3421">
<rect width="131.2" height="120" fill="white" transform="translate(0.399994)"/>
</clipPath>
</defs>
</svg>
